<?xml version="1.0" encoding="utf-8"?>
<!-- Generator: Adobe Illustrator 15.0.0, SVG Export Plug-In . SVG Version: 6.00 Build 0)  -->
<!DOCTYPE svg PUBLIC "-//W3C//DTD SVG 1.1//EN" "http://www.w3.org/Graphics/SVG/1.1/DTD/svg11.dtd">
<svg version="1.1" id="Layer_1" xmlns="http://www.w3.org/2000/svg" xmlns:xlink="http://www.w3.org/1999/xlink" x="0px" y="0px"
	 width="612px" height="792px" viewBox="0 0 612 792" enable-background="new 0 0 612 792" xml:space="preserve">
<path fill="#FFFFFF" d="M100.602,409.582H83.858c2.217,7.605,6.331,14.422,12.354,20.445c9.602,9.602,21.148,14.398,34.65,14.398
	c2.699,0,5.314-0.201,7.854-0.584c10.17-1.535,19.074-6.133,26.703-13.814c6.062-6.023,10.205-12.84,12.439-20.445h-6.795h-9.936
	H100.602z"/>
<g>
	<path fill="#FFFFFF" d="M179.102,386.84c0.322,1.922,0.541,3.884,0.641,5.896h-6.871H97.596h-5.215H81.985
		c0.099-2.012,0.316-3.974,0.637-5.896h8.747H179.102z"/>
	<path fill="#FFFFFF" d="M179.744,398.211c-0.1,2.013-0.319,3.975-0.642,5.896h-6.846H98.608h-6.893h-9.094
		c-0.32-1.921-0.538-3.883-0.637-5.896H179.744z"/>
</g>
<path fill="#FFFFFF" d="M177.86,381.364c-2.232-7.626-6.376-14.474-12.441-20.54c-7.609-7.609-16.488-12.174-26.625-13.71
	c-2.564-0.389-5.205-0.593-7.932-0.593c-13.502,0-25.049,4.769-34.65,14.303c-6.025,6.066-10.141,12.914-12.357,20.54H177.86z"/>
<g>
	<path fill="#FFFFFF" d="M79.078,395.475c0-25.824,19.395-47.281,44.626-51.055c-0.626-0.023-1.255-0.048-1.887-0.048
		c-28.314,0-51.269,22.88-51.269,51.103c0,28.224,22.954,51.104,51.269,51.104c0.634,0,1.263-0.025,1.891-0.048
		C98.473,442.758,79.078,421.3,79.078,395.475z"/>
</g>
<rect x="350.143" y="340.309" fill="#FFFFFF" width="10.197" height="12.912"/>
<path fill="#FFFFFF" d="M265.007,393.445v4.986h-46.885c0.442,7.023,2.558,12.369,6.345,16.045
	c3.788,3.678,9.062,5.514,15.822,5.514c3.916,0,7.712-0.479,11.39-1.439c3.676-0.959,7.322-2.402,10.945-4.324v9.645
	c-3.658,1.551-7.408,2.734-11.251,3.547s-7.74,1.219-11.693,1.219c-9.901,0-17.743-2.881-23.525-8.646
	c-5.782-5.764-8.673-13.557-8.673-23.385c0-10.16,2.743-18.225,8.229-24.191s12.886-8.951,22.195-8.951
	c8.351,0,14.954,2.688,19.812,8.064C262.578,376.902,265.007,384.209,265.007,393.445 M254.81,390.453
	c-0.075-5.578-1.636-10.031-4.683-13.355c-3.049-3.326-7.085-4.988-12.109-4.988c-5.69,0-10.244,1.607-13.661,4.822
	c-3.418,3.213-5.385,7.74-5.902,13.576L254.81,390.453z"/>
<path fill="#FFFFFF" d="M317.9,367.344v9.531c-2.883-1.588-5.775-2.779-8.674-3.574c-2.902-0.795-5.829-1.191-8.785-1.191
	c-6.614,0-11.749,2.096-15.405,6.289c-3.658,4.193-5.487,10.078-5.487,17.65c0,7.574,1.829,13.459,5.487,17.652
	c3.656,4.195,8.791,6.289,15.405,6.289c2.956,0,5.883-0.396,8.785-1.189c2.898-0.795,5.791-1.986,8.674-3.576v9.422
	c-2.846,1.33-5.793,2.328-8.84,2.992c-3.05,0.666-6.29,0.998-9.727,0.998c-9.348,0-16.773-2.938-22.277-8.812
	c-5.506-5.873-8.258-13.799-8.258-23.775c0-10.121,2.779-18.084,8.34-23.885c5.56-5.799,13.182-8.701,22.859-8.701
	c3.142,0,6.208,0.326,9.202,0.971C312.191,365.08,315.092,366.051,317.9,367.344"/>
<rect x="327.121" y="340.797" fill="#FFFFFF" width="10.199" height="86.232"/>
<path fill="#FFFFFF" d="M350.143,364.959h10.197v62.07h-10.197V364.959z"/>
<path fill="#FFFFFF" d="M383.027,417.719v32.92h-10.252v-85.68h10.252v9.422c2.143-3.693,4.85-6.438,8.119-8.23
	c3.27-1.789,7.178-2.688,11.721-2.688c7.539,0,13.662,2.992,18.371,8.979c4.711,5.986,7.066,13.855,7.066,23.607
	c0,9.756-2.355,17.625-7.066,23.609c-4.709,5.984-10.832,8.979-18.371,8.979c-4.543,0-8.451-0.896-11.721-2.689
	C387.877,424.158,385.17,421.414,383.027,417.719 M417.721,396.049c0-7.5-1.543-13.383-4.629-17.65
	c-3.084-4.268-7.324-6.4-12.719-6.4s-9.635,2.133-12.717,6.4c-3.086,4.268-4.629,10.15-4.629,17.65
	c0,7.502,1.543,13.387,4.629,17.652c3.082,4.268,7.322,6.4,12.717,6.4s9.635-2.133,12.719-6.4
	C416.178,409.436,417.721,403.551,417.721,396.049"/>
<path fill="#FFFFFF" d="M476.266,366.789v9.643c-2.883-1.477-5.875-2.586-8.979-3.326c-3.104-0.738-6.318-1.107-9.643-1.107
	c-5.062,0-8.857,0.775-11.389,2.328c-2.531,1.551-3.795,3.879-3.795,6.982c0,2.363,0.904,4.221,2.715,5.57
	c1.809,1.348,5.449,2.631,10.918,3.852l3.49,0.775c7.242,1.553,12.387,3.74,15.434,6.568c3.049,2.826,4.574,6.77,4.574,11.83
	c0,5.764-2.283,10.326-6.846,13.689c-4.562,3.361-10.834,5.043-18.814,5.043c-3.324,0-6.789-0.324-10.393-0.969
	c-3.602-0.646-7.396-1.617-11.389-2.91v-10.531c3.77,1.961,7.482,3.428,11.141,4.408c3.658,0.979,7.277,1.467,10.861,1.467
	c4.805,0,8.496-0.82,11.084-2.465c2.588-1.646,3.879-3.963,3.879-6.955c0-2.771-0.932-4.895-2.797-6.375
	c-1.867-1.477-5.959-2.9-12.277-4.268l-3.545-0.83c-6.318-1.33-10.881-3.371-13.689-6.123c-2.807-2.752-4.211-6.529-4.211-11.334
	c0-5.838,2.07-10.344,6.207-13.521s10.012-4.768,17.623-4.768c3.768,0,7.316,0.277,10.641,0.83
	C470.391,364.85,473.457,365.68,476.266,366.789"/>
<path fill="#FFFFFF" d="M540.408,393.445v4.986h-46.885c0.443,7.023,2.557,12.369,6.346,16.045c3.785,3.678,9.061,5.514,15.82,5.514
	c3.918,0,7.713-0.479,11.391-1.439c3.676-0.959,7.322-2.402,10.945-4.324v9.645c-3.658,1.551-7.408,2.734-11.252,3.547
	c-3.84,0.812-7.738,1.219-11.691,1.219c-9.904,0-17.744-2.881-23.525-8.646c-5.783-5.764-8.674-13.557-8.674-23.385
	c0-10.16,2.744-18.225,8.229-24.191c5.486-5.967,12.887-8.951,22.197-8.951c8.348,0,14.953,2.688,19.812,8.064
	C537.979,376.902,540.408,384.209,540.408,393.445 M530.211,390.453c-0.076-5.578-1.633-10.031-4.684-13.355
	c-3.049-3.326-7.086-4.988-12.107-4.988c-5.689,0-10.244,1.607-13.66,4.822c-3.418,3.213-5.387,7.74-5.904,13.576L530.211,390.453z"
	/>
</svg>
